# xmcd
#
# Track frame offsets: 
#        225
#        13835
#        27654
#        45631
#        61813
#
# Disc length: 1006 seconds
#
# Revision: 0
# Processed by: cddbd v1.5.2PL0 Copyright (c) Steve Scherf et al.
# Submitted via: ExactAudioCopy v1.0b1
#
DISCID=3d03eb05
DTITLE=Courtney Conway - A Few Little Things
DYEAR=2010
DGENRE=Country
TTITLE0=A Few Little Things
TTITLE1=Girly Girl
TTITLE2=Don't Ever Let a Chance Go By
TTITLE3=Ain't No Way To Treat a Lady
TTITLE4=He Loves Me Not
EXTD=
EXTT0=
EXTT1=
EXTT2=
EXTT3=
EXTT4=
PLAYORDER=
